<svg xmlns="http://www.w3.org/2000/svg" viewBox="0 0 129 129">
  <defs>
    <style>
      .st0 {
        fill: #dc134f;
      }

      .st1 {
        fill: #fff;
      }
    </style>
  </defs>
  <g id="c">
    <g>
      <path
        id="Circle"
        class="st0"
        d="M64.5,0C28.9,0,0,28.9,0,64.5s28.9,64.5,64.5,64.5,64.5-28.9,64.5-64.5S100.1,0,64.5,0Z"
      />
    </g>
  </g>
  <g id="S">
    <path
      id="Tip"
      class="st1"
      d="M98.8,29.5s-13.1-5.7-22-8.7c-.8,7.6,0,15.3,2.6,22.6,6.6-3.4,19.4-13.9,19.4-13.9Z"
    />
    <path
      id="Back"
      class="st1"
      d="M35.5,76.9l-2.2-1.3c-5.6,6.2-9.1,13.9-10,22,.9.5,5.6,3.2,12.7,5.6.9-8.1,3.9-15.8,8.7-22.4-5.5-1.9-9-3.9-9.2-3.9Z"
    />
    <path
      id="Line"
      class="st1"
      d="M54.5,90.5c1.9.2,5.4.5,6.5.5,7.4.2,6.8,0,9.8-.3s5-.9,5.9-1.1c1.3-.3,3.9-1.2,5.1-1.9s3-1.7,4.1-2.7c2.1-2,3.2-4.4,3.2-7.3s-1.1-4.7-3-6.5c-2.7-2.5-6.7-3.7-11.5-3.4h0c-2.7.2-11.6.7-15.5.9-6.6.2-12.5-1.8-16.6-5.8-3.5-3.4-5.4-8-5.4-13s2.2-20.9,30.1-21.9h1.6c0-2.6,0-5.1.2-7.7h-1.9c-12.4.4-22.1,3.7-28.7,9.6-5.7,5.1-8.9,12.2-8.9,19.9s2.8,13.6,7.8,18.5c5.7,5.7,13.6,8.5,22.3,8.2h0c3.8,0,11.6-.4,14.6-.6h1.2c2.5,0,4.2,0,5.4.7s.8.7.9,1.2,0,.9,0,1c0,.3-.4.6-.8,1-1.6,1.4-6.1,3.3-12.2,4s-10.3,0-10.6-.2c-.8,0-1.7-.2-2.2-.3-1.1-.2-1.6-.3-2.9-.6-1.8,2.1-3.3,4.4-4.6,6.8l1.2.2"
    />
    <path
      id="Line1"
      class="st1"
      d="M44.9,98.6c-.7,2.5-1.1,5-1.3,7.6,4.8,1.2,10.4,2.2,16.3,2.5h4.1c14.4,0,26-3.7,33.4-10.8,5.4-5.1,8.3-11.8,8.3-19.2-.2-6.8-3.1-14.1-8.3-18.9h0c-3.4-3.2-7.5-5.4-12.1-6.7-3.1-.8-6.4-1.2-9.8-1.2s-1.2,0-1.7,0c-3.9.2-12,.7-15.2.9-2,0-3.7-.4-4.6-1.2-.5-.5-.5-1.2-.5-1.5,0-.9.3-1.7,2.1-2.6,2.8-1.6,7.7-2.6,13.3-2.7h2.7c-.8-2.5-1.5-5.1-1.9-7.7h-1c-7.1,0-13,1.4-17,3.7-5.2,3-5.9,6.8-5.9,9.5s1,5,2.9,6.8c2.5,2.4,6.1,3.6,10.3,3.3,3.1-.2,11.3-.6,15.3-.9,7.2-.5,13.5,1.6,18,5.7,3.6,3.4,5.7,8.1,5.7,12.8v1c-.2,4.9-2.2,9.2-5.9,12.6-5.9,5.6-15.9,8.7-28.1,8.7s-2.5,0-3.8,0h-2.3c-.5,0-2.3-.2-2.8-.2"
    />
  </g>
</svg>
